HIERARCHY
ROOT Hips
{
    OFFSET   0.000000   0.000000   0.000000
    CHANNELS 6 Xposition Yposition Zposition Zrotation Xrotation Yrotation
    JOINT Chest
    {
        OFFSET   0.000000   8.007230   0.000000
        CHANNELS 3 Zrotation Xrotation Yrotation
        JOINT Chest2
        {
            OFFSET   0.000000  22.077100   0.000000
            CHANNELS 3 Zrotation Xrotation Yrotation
            JOINT Neck
            {
                OFFSET   0.000000  23.255100   0.000000
                CHANNELS 3 Zrotation Xrotation Yrotation
                JOINT Head
                {
                    OFFSET   0.000000  14.370100   1.956600
                    CHANNELS 3 Zrotation Xrotation Yrotation
                    End Site
                    {
                        OFFSET   0.000000  19.566000   0.000000
                    }
                }
            }
            JOINT LeftCollar
            {
                OFFSET   3.911900  19.017000  -0.467063
                CHANNELS 3 Zrotation Xrotation Yrotation
                JOINT LeftShoulder
                {
                    OFFSET  10.383700   0.000000   0.000000
                    CHANNELS 3 Zrotation Xrotation Yrotation
                    JOINT LeftElbow
                    {
                        OFFSET  26.662100   0.001193   0.000980
                        CHANNELS 3 Zrotation Xrotation Yrotation
                        JOINT LeftWrist
                        {
                            OFFSET  28.869000  -0.000059  -0.000082
                            CHANNELS 3 Zrotation Xrotation Yrotation
                            JOINT LeftFinger0
                            {
                                OFFSET   2.044650  -2.323450   3.252850
                                CHANNELS 3 Zrotation Xrotation Yrotation
                                JOINT LeftFinger01
                                {
                                    OFFSET   3.088130   0.000000   0.000000
                                    CHANNELS 3 Zrotation Xrotation Yrotation
                                    JOINT LeftFinger02
                                    {
                                        OFFSET   2.639460   0.000000   0.000000
                                        CHANNELS 3 Zrotation Xrotation Yrotation
                                        End Site
                                        {
                                            OFFSET   2.582190   0.000000   0.000000
                                        }
                                    }
                                }
                            }
                            JOINT LeftFinger1
                            {
                                OFFSET   8.364480   0.000000   3.252850
                                CHANNELS 3 Zrotation Xrotation Yrotation
                                JOINT LeftFinger11
                                {
                                    OFFSET   4.646930   0.000000   0.000000
                                    CHANNELS 3 Zrotation Xrotation Yrotation
                                    JOINT LeftFinger12
                                    {
                                        OFFSET   2.323470   0.000000   0.000000
                                        CHANNELS 3 Zrotation Xrotation Yrotation
                                        End Site
                                        {
                                            OFFSET   2.273050   0.000000   0.000000
                                        }
                                    }
                                }
                            }
                            JOINT LeftFinger2
                            {
                                OFFSET   8.364490   0.000016   1.078090
                                CHANNELS 3 Zrotation Xrotation Yrotation
                                JOINT LeftFinger21
                                {
                                    OFFSET   5.111610   0.000000   0.000000
                                    CHANNELS 3 Zrotation Xrotation Yrotation
                                    JOINT LeftFinger22
                                    {
                                        OFFSET   2.788150   0.000016   0.000000
                                        CHANNELS 3 Zrotation Xrotation Yrotation
                                        End Site
                                        {
                                            OFFSET   2.727660   0.000000   0.000000
                                        }
                                    }
                                }
                            }
                            JOINT LeftFinger3
                            {
                                OFFSET   7.899780   0.000015  -1.078090
                                CHANNELS 3 Zrotation Xrotation Yrotation
                                JOINT LeftFinger31
                                {
                                    OFFSET   4.646930   0.000000   0.000000
                                    CHANNELS 3 Zrotation Xrotation Yrotation
                                    JOINT LeftFinger32
                                    {
                                        OFFSET   2.323470   0.000000   0.000000
                                        CHANNELS 3 Zrotation Xrotation Yrotation
                                        End Site
                                        {
                                            OFFSET   2.273050   0.000000   0.000000
                                        }
                                    }
                                }
                            }
                            JOINT LeftFinger4
                            {
                                OFFSET   7.435090   0.000000  -3.252850
                                CHANNELS 3 Zrotation Xrotation Yrotation
                                JOINT LeftFinger41
                                {
                                    OFFSET   3.717550   0.000000   0.000000
                                    CHANNELS 3 Zrotation Xrotation Yrotation
                                    JOINT LeftFinger42
                                    {
                                        OFFSET   1.858770   0.000000   0.000000
                                        CHANNELS 3 Zrotation Xrotation Yrotation
                                        End Site
                                        {
                                            OFFSET   1.818440   0.000000   0.000000
                                        }
                                    }
                                }
                            }
                        }
                    }
                }
            }
            JOINT RightCollar
            {
                OFFSET  -3.911910  19.017000  -0.467062
                CHANNELS 3 Zrotation Xrotation Yrotation
                JOINT RightShoulder
                {
                    OFFSET -10.383700   0.000014   0.000000
                    CHANNELS 3 Zrotation Xrotation Yrotation
                    JOINT RightElbow
                    {
                        OFFSET -26.662100   0.001225   0.001091
                        CHANNELS 3 Zrotation Xrotation Yrotation
                        JOINT RightWrist
                        {
                            OFFSET -28.869000  -0.000020  -0.000085
                            CHANNELS 3 Zrotation Xrotation Yrotation
                            JOINT RightFinger0
                            {
                                OFFSET  -2.044650  -2.323490   3.252850
                                CHANNELS 3 Zrotation Xrotation Yrotation
                                JOINT RightFinger01
                                {
                                    OFFSET  -3.088130   0.000000   0.000000
                                    CHANNELS 3 Zrotation Xrotation Yrotation
                                    JOINT RightFinger02
                                    {
                                        OFFSET  -2.639460   0.000000   0.000000
                                        CHANNELS 3 Zrotation Xrotation Yrotation
                                        End Site
                                        {
                                            OFFSET  -2.582190   0.000000   0.000000
                                        }
                                    }
                                }
                            }
                            JOINT RightFinger1
                            {
                                OFFSET  -8.364480   0.000000   3.252850
                                CHANNELS 3 Zrotation Xrotation Yrotation
                                JOINT RightFinger11
                                {
                                    OFFSET  -4.646930   0.000000   0.000000
                                    CHANNELS 3 Zrotation Xrotation Yrotation
                                    JOINT RightFinger12
                                    {
                                        OFFSET  -2.323470   0.000000   0.000000
                                        CHANNELS 3 Zrotation Xrotation Yrotation
                                        End Site
                                        {
                                            OFFSET  -2.273050   0.000000   0.000000
                                        }
                                    }
                                }
                            }
                            JOINT RightFinger2
                            {
                                OFFSET  -8.364480   0.000000   1.078090
                                CHANNELS 3 Zrotation Xrotation Yrotation
                                JOINT RightFinger21
                                {
                                    OFFSET  -5.111620   0.000000   0.000000
                                    CHANNELS 3 Zrotation Xrotation Yrotation
                                    JOINT RightFinger22
                                    {
                                        OFFSET  -2.788160   0.000000   0.000000
                                        CHANNELS 3 Zrotation Xrotation Yrotation
                                        End Site
                                        {
                                            OFFSET  -2.727660   0.000000   0.000000
                                        }
                                    }
                                }
                            }
                            JOINT RightFinger3
                            {
                                OFFSET  -7.899780   0.000000  -1.078090
                                CHANNELS 3 Zrotation Xrotation Yrotation
                                JOINT RightFinger31
                                {
                                    OFFSET  -4.646930   0.000000   0.000000
                                    CHANNELS 3 Zrotation Xrotation Yrotation
                                    JOINT RightFinger32
                                    {
                                        OFFSET  -2.323470   0.000000   0.000000
                                        CHANNELS 3 Zrotation Xrotation Yrotation
                                        End Site
                                        {
                                            OFFSET  -2.273050   0.000000   0.000000
                                        }
                                    }
                                }
                            }
                            JOINT RightFinger4
                            {
                                OFFSET  -7.435090   0.000000  -3.252850
                                CHANNELS 3 Zrotation Xrotation Yrotation
                                JOINT RightFinger41
                                {
                                    OFFSET  -3.717550   0.000000   0.000000
                                    CHANNELS 3 Zrotation Xrotation Yrotation
                                    JOINT RightFinger42
                                    {
                                        OFFSET  -1.858760   0.000000   0.000000
                                        CHANNELS 3 Zrotation Xrotation Yrotation
                                        End Site
                                        {
                                            OFFSET  -1.818440   0.000000   0.000000
                                        }
                                    }
                                }
                            }
                        }
                    }
                }
            }
        }
    }
    JOINT LeftHip
    {
        OFFSET   9.783030   0.000000   0.000000
        CHANNELS 3 Zrotation Xrotation Yrotation
        JOINT LeftKnee
        {
            OFFSET   0.000063 -41.789100   0.000608
            CHANNELS 3 Zrotation Xrotation Yrotation
            JOINT LeftAnkle
            {
                OFFSET   0.000048 -41.133200  -0.000184
                CHANNELS 3 Zrotation Xrotation Yrotation
                JOINT LeftToe
                {
                    OFFSET   0.000000  -6.358960  14.674500
                    CHANNELS 3 Zrotation Xrotation Yrotation
                    End Site
                    {
                        OFFSET   0.000000   0.000000   3.913200
                    }
                }
            }
        }
    }
    JOINT RightHip
    {
        OFFSET  -9.783030   0.000000   0.000000
        CHANNELS 3 Zrotation Xrotation Yrotation
        JOINT RightKnee
        {
            OFFSET   0.000071 -41.789100   0.001239
            CHANNELS 3 Zrotation Xrotation Yrotation
            JOINT RightAnkle
            {
                OFFSET   0.000037 -41.133200  -0.000166
                CHANNELS 3 Zrotation Xrotation Yrotation
                JOINT RightToe
                {
                    OFFSET   0.000000  -6.358960  14.674500
                    CHANNELS 3 Zrotation Xrotation Yrotation
                    End Site
                    {
                        OFFSET   0.000000   0.000000   3.913200
                    }
                }
            }
        }
    }
}
MOTION
Frames: 4
Frame Time:   0.016667
  0.846326  89.542500   0.563552  -3.369920  -9.818020  -2.476780   0.384690   5.276760   1.597420   0.624483  10.562200   3.179310   2.675100   0.014128  -0.005354   4.391980   0.028046   1.419660  -4.953480   0.423471   0.523015 -73.130500  23.028100  -6.374410  -2.256800  -8.112850 -13.257000  15.105700 -12.334300  10.560800  40.255100  34.844300 -63.051700 -32.186200  -0.000622   0.001918 -11.093100  -0.002941   0.003711 -26.613300   5.750970 -11.309200 -22.241100  -0.001903  -0.000678 -15.568700  -0.001534  -0.000827 -27.465200   0.715388  -1.375970 -29.075400  -0.001463  -0.000412 -19.364200   0.000973  -0.000065 -27.237500   0.709886  -1.378810 -28.031200  -0.015392  -0.001406 -18.668800  -0.001375  -0.004773 -28.307000   0.735339  -1.365370 -42.474400  -0.027959  -0.002346 -28.287300  -0.000364  -0.022776   8.328390   0.947651   5.131700  39.986300  -8.171690  29.692000 -43.170900 -30.143200  76.373600 -55.751700  40.144400  17.468300 -27.029300  60.186000  70.469300  83.222800   0.003879  -0.034148  48.766400   0.001507  -0.002068  11.544600   5.616640  25.383700  10.531200   0.018765  -0.118988   7.371820  -0.000462  -0.083578  12.904700   0.820446   3.424690  12.964900   0.042949  -0.120856   8.634620   0.014046  -0.084117  76.321200  -4.862060  -1.186610  76.371600  -0.001280  -0.001703  57.278800   0.000914   0.000917  84.595200  -9.960650  -0.940494 110.000000  -0.001648   0.001263  80.000000  -0.013687   0.002202   2.534790  12.341700   3.871150   0.604131   0.287542   7.297250  -2.019400  -3.137130   1.914070  -0.000000   0.000000  -0.000000   3.520510  10.568600  -6.275410  -1.527940   3.400570  -7.331210  -0.009273  -4.886310  -0.005348  -0.000000   0.000000  -0.000000
  0.856648  89.542000   0.610713  -3.377910  -9.801050  -2.532250   0.382093   5.229860   1.562220   0.624096  10.468200   3.108820   2.664030   0.036712  -0.005210   4.376680   0.073603   1.489880  -4.967410   0.493063   0.580907 -73.193100  22.933600  -6.247460  -2.240320  -8.010490 -13.302000  15.088300 -12.311500  10.549500  40.294600  34.881600 -63.081000 -32.172800  -0.000538   0.002112 -11.086400  -0.002963   0.003688 -26.595100   5.755730 -11.327200 -22.227000  -0.001928  -0.000856 -15.558900  -0.001539  -0.000922 -27.454700   0.722979  -1.391180 -29.025800  -0.001089  -0.000329 -19.331100   0.001134  -0.000117 -27.228200   0.717462  -1.394020 -27.989200  -0.016651  -0.001406 -18.640800  -0.001282  -0.005193 -28.280200   0.742914  -1.380590 -42.433700  -0.031584  -0.002346 -28.260800  -0.000391  -0.025626   8.215930   1.114330   5.157750  40.428100  -7.551220  29.542300 -43.615300 -30.308800  75.656800 -54.051900  38.578200  15.875500 -24.991700  58.082900  68.148500  83.456900   0.007775  -0.067798  48.922200   0.001557  -0.002181  14.916900   6.848560  23.947500  13.450500   0.009838  -0.139399   9.415330  -0.012089  -0.096575  16.409400   0.571948   1.907140  16.428100   0.037791  -0.138524  10.941100   0.004109  -0.094887  76.824100  -4.876130  -1.145090  76.872600  -0.001175  -0.001646  57.654500   0.001011   0.000840  84.969600  -9.960840  -0.876211 110.000000  -0.001648   0.001289  80.000000  -0.013775   0.002203   2.535050  12.366700   3.862720   0.607481   0.292251   7.322960  -2.020330  -3.164030   1.958500   0.000000   0.000000   0.000000   3.463330  10.576100  -6.285230  -1.441610   3.392770  -7.236410  -0.045401  -4.887660  -0.022393  -0.000000   0.000000   0.000000
  0.868725  89.544800   0.665755  -3.383840  -9.773500  -2.581800   0.380712   5.156380   1.507710   0.628322  10.321000   2.999190   2.636010   0.096786  -0.005075   4.332130   0.194560   1.618350  -5.003390   0.598812   0.660087 -73.267100  22.791300  -6.049570  -2.204590  -7.835780 -13.362300  15.096100 -12.312300  10.545600  40.314200  34.921700 -63.065400 -32.180800  -0.000492   0.002211 -11.090400  -0.002982   0.003658 -26.547800   5.735760 -11.309300 -22.186200  -0.001949  -0.000947 -15.530300  -0.001478  -0.001044 -27.451100   0.704481  -1.355820 -29.006800  -0.000897  -0.000291 -19.318500   0.001249  -0.000180 -27.220900   0.699071  -1.358610 -27.956000  -0.012646  -0.001406 -18.618700  -0.001231  -0.004833 -28.238000   0.723310  -1.345840 -42.369900  -0.024847  -0.002346 -28.218400  -0.000419  -0.020332   8.058570   1.340710   5.217680  41.044100  -6.543540  29.274900 -44.081600 -30.446000  74.519000 -51.862700  36.466400  13.822600 -23.101200  55.478600  65.915100  83.361700   0.007348  -0.057043  48.858800   0.001616  -0.002318  18.644200   8.023210  22.384600  16.602200  -0.007612  -0.117156  11.621500  -0.023070  -0.078904  20.496700   0.179309   0.508204  20.142800   0.009997  -0.118548  13.415100  -0.014213  -0.077841  77.455700  -4.923480  -1.129200  77.503000  -0.001124  -0.001590  58.127300   0.001117   0.000799  85.507700  -9.960390  -0.781052 110.000000  -0.001654   0.001325  80.000000  -0.013870   0.002212   2.524370  12.390000   3.863130   0.617475   0.263631   7.340780  -2.019620  -3.166050   2.002900   0.000000   0.000000  -0.000000   3.405410  10.591600  -6.267820  -1.351520   3.360930  -7.200840  -0.077199  -4.882600  -0.011394  -0.000000   0.000000   0.000000
  0.881183  89.549600   0.720038  -3.384160  -9.736870  -2.629800   0.373251   5.072710   1.455460   0.620127  10.153200   2.894720   2.590070   0.163422  -0.004935   4.255210   0.328824   1.752720  -5.046130   0.704321   0.709853 -73.336500  22.634900  -5.826010  -2.150760  -7.637470 -13.397700  15.116200 -12.313300  10.544600  40.335200  34.946400 -63.047100 -32.196200  -0.000346   0.002510 -11.098100  -0.002991   0.003625 -26.515100   5.712930 -11.283600 -22.156300  -0.001959  -0.000975 -15.509400  -0.001049  -0.001119 -27.450900   0.673980  -1.297160 -29.001600  -0.000311  -0.000185 -19.315100   0.001476  -0.000215 -27.217600   0.668695  -1.299880 -27.937900  -0.003063  -0.001406 -18.606600  -0.001067  -0.002317 -28.210900   0.691162  -1.288070 -42.327900  -0.014096  -0.002345 -28.190400  -0.000448  -0.011747   7.943080   1.552120   5.259380  41.739200  -5.348530  28.855700 -44.614000 -30.503600  73.090100 -49.251900  33.835500  11.618400 -21.359300  52.495500  63.782700  83.172900   0.004353  -0.036255  48.733100   0.001651  -0.002398  22.484500   9.070740  20.766700  19.786700  -0.026407  -0.085400  13.850700  -0.033460  -0.052968  24.276400  -0.299972  -0.718477  24.071200  -0.013377  -0.089166  16.031400  -0.026883  -0.053686  77.860100  -4.958320  -1.082380  77.903200  -0.000971  -0.001539  58.427400   0.001229   0.000672  85.863400  -9.959460  -0.717780 110.000000  -0.001665   0.001362  80.000000  -0.013968   0.002221   2.504000  12.402500   3.863690   0.629350   0.235015   7.354700  -2.019410  -3.168070   2.045290  -0.000000   0.000000   0.000000   3.343820  10.609800  -6.238990  -1.264170   3.307330  -7.188000  -0.105764  -4.870330   0.007857  -0.000000   0.000000  -0.000000
